<svg width="94" height="94" viewBox="0 0 94 94" fill="none" xmlns="http://www.w3.org/2000/svg">
<circle cx="47" cy="47" r="47" fill="#4CC81B"/>
<path d="M55.39 28.286V45.328C55.9317 45.2607 56.4771 45.2273 57.023 45.228C57.297 45.228 57.569 45.2363 57.839 45.253V26.041C57.839 24.9138 56.9252 24 55.798 24H32.731C32.6205 24 32.531 24.0895 32.531 24.2V26.445H53.553C54.0409 26.445 54.5088 26.6391 54.8534 26.9845C55.198 27.3298 55.3911 27.7981 55.39 28.286Z" fill="white"/>
<path fill-rule="evenodd" clip-rule="evenodd" d="M49.7729 54.616L50.6799 59.152C51.0345 60.9256 52.0316 62.5057 53.4799 63.589L57.0259 66.249L60.5719 63.589C62.0203 62.5057 63.0174 60.9256 63.3719 59.152L64.2789 54.616L57.0299 50.357L49.7729 54.616ZM57.0219 63.187C54.3158 63.187 52.1219 60.9932 52.1219 58.287C52.1219 55.5808 54.3158 53.387 57.0219 53.387V55.02C55.2182 55.02 53.7559 56.4822 53.7559 58.286C53.7559 60.0898 55.2182 61.552 57.0219 61.552C58.8257 61.552 60.2879 60.0898 60.2879 58.286H61.9209C61.9212 59.5856 61.4052 60.832 60.4865 61.7511C59.5677 62.6702 58.3215 63.1867 57.0219 63.187ZM61.6769 55.6L60.5219 54.446L57.0219 57.95L55.9659 56.894L54.8119 58.049L56.4419 59.682C56.595 59.835 56.8025 59.921 57.0189 59.921C57.2354 59.921 57.4429 59.835 57.5959 59.682L61.6769 55.6Z" fill="white"/>
<path fill-rule="evenodd" clip-rule="evenodd" d="M45.594 58.288C45.594 51.9759 50.7109 46.859 57.023 46.859C63.3351 46.859 68.452 51.9759 68.452 58.288C68.452 64.6001 63.3351 69.717 57.023 69.717C50.7109 69.717 45.594 64.6001 45.594 58.288ZM61.548 64.895C63.3165 63.5701 64.5336 61.639 64.966 59.472L65.986 54.367C66.0543 54.026 65.899 53.6791 65.599 53.503L57.435 48.703C57.1797 48.553 56.8632 48.553 56.608 48.703L48.444 53.503C48.144 53.6791 47.9887 54.026 48.057 54.367L49.078 59.472C49.5104 61.639 50.7275 63.5701 52.496 64.895L56.532 67.922C56.8223 68.14 57.2217 68.14 57.512 67.922L61.548 64.895Z" fill="white"/>
<path d="M36.6379 41.144C36.7082 42.255 36.9199 43.3525 37.2679 44.41H42.4939C42.842 43.3525 43.0537 42.255 43.1239 41.144L36.6379 41.144Z" fill="white"/>
<path d="M43.152 47.038C42.9699 47.3834 42.7697 47.7188 42.552 48.043C43.7424 47.628 44.8208 46.9435 45.703 46.043H43.619C43.452 46.437 43.289 46.771 43.152 47.038Z" fill="white"/>
<path d="M44.198 44.41H46.946C47.5271 43.4092 47.8872 42.2956 48.002 41.144H44.755C44.6932 42.2502 44.5064 43.3458 44.198 44.41H44.198Z" fill="white"/>
<path d="M44.753 39.512H48.002C47.8872 38.3604 47.5271 37.2468 46.946 36.246H44.187C44.4984 37.3098 44.6883 38.4054 44.753 39.512Z" fill="white"/>
<path d="M37.9981 46.173C38.8421 47.816 39.6591 48.413 39.8781 48.454C40.0971 48.413 40.9141 47.816 41.7581 46.173C41.7791 46.132 41.8011 46.088 41.8241 46.043H37.9331L37.9981 46.173Z" fill="white"/>
<path d="M30.8979 63.187H44.9129C44.5918 62.3965 44.3496 61.5762 44.1899 60.738H30.8979V63.187Z" fill="white"/>
<path d="M43.604 34.61H45.704C44.8132 33.7011 43.7226 33.0126 42.519 32.599C42.7486 32.9383 42.9589 33.2902 43.149 33.653C43.286 33.91 43.442 34.236 43.604 34.61Z" fill="white"/>
<path d="M36.1331 46.043H34.0491C34.9313 46.9435 36.0097 47.628 37.2001 48.043C36.9826 47.7204 36.7823 47.3866 36.6001 47.043C36.4681 46.771 36.3051 46.437 36.1331 46.043Z" fill="white"/>
<path d="M41.7589 34.521C40.9149 32.878 40.0979 32.281 39.8789 32.24C39.6599 32.281 38.8429 32.878 37.9989 34.521L37.9519 34.613H41.8059L41.7589 34.521Z" fill="white"/>
<path d="M35.5701 36.246H32.8111C32.2303 37.2469 31.8706 38.3605 31.7561 39.512H35.0051C35.0695 38.4055 35.259 37.3098 35.5701 36.246V36.246Z" fill="white"/>
<path d="M35.0031 41.144H31.7561C31.8706 42.2955 32.2303 43.4091 32.8111 44.41H35.5561C35.2477 43.3458 35.0609 42.2502 34.9991 41.144H35.0031Z" fill="white"/>
<path d="M36.608 33.656C36.7981 33.2932 37.0085 32.9413 37.238 32.602C36.0344 33.0156 34.9438 33.7041 34.053 34.613H36.153C36.315 34.236 36.472 33.91 36.608 33.656Z" fill="white"/>
<path fill-rule="evenodd" clip-rule="evenodd" d="M53.757 45.639V28.282C53.757 28.1715 53.6675 28.082 53.557 28.082H27.02C26.4567 28.082 26 28.5386 26 29.102V68.697C26 68.9675 26.1075 69.2269 26.2988 69.4182C26.49 69.6095 26.7495 69.717 27.02 69.717H50.7C48.6251 68.5636 46.9009 66.8705 45.71 64.817H30.082C29.6313 64.817 29.266 64.4516 29.266 64.001V59.919C29.266 59.7026 29.352 59.495 29.505 59.342C29.658 59.1889 29.8656 59.103 30.082 59.103H43.982C43.9653 58.833 43.957 58.561 43.957 58.287C43.9655 52.3323 47.9931 47.1342 53.757 45.639ZM39.879 30.531C45.2914 30.531 49.679 34.9186 49.679 40.331C49.679 45.7434 45.2914 50.131 39.879 50.131C34.4666 50.131 30.079 45.7434 30.079 40.331C30.079 34.9186 34.4666 30.531 39.879 30.531ZM31.715 56.655H33.348V55.023H31.715V56.655ZM37.43 56.655H35.8V55.023H37.433L37.43 56.655ZM39.879 56.655H41.512V55.023H39.879V56.655Z" fill="white"/>
<path d="M43.1171 39.512C43.0422 38.4003 42.8258 37.3028 42.4731 36.246H37.2731C36.9217 37.303 36.7066 38.4005 36.6331 39.512H43.1171Z" fill="white"/>
</svg>
