<svg width="62" height="61" viewBox="0 0 62 61" fill="none" xmlns="http://www.w3.org/2000/svg">
<ellipse cx="31" cy="30.1461" rx="31" ry="30.1461" fill="white"/>
<path fill-rule="evenodd" clip-rule="evenodd" d="M19.0702 14.1755C18.8615 14.4979 18.8379 14.902 19.0077 15.2453L24.0338 25.4205L25.2958 22.8616L28.0636 17.2589L29.3287 14.6999L29.128 14.2863C28.938 13.9006 28.5365 13.656 28.0967 13.658H20.035C19.6433 13.6576 19.2788 13.8531 19.0702 14.1755ZM30.2607 26.7034C28.4596 26.7034 26.6856 27.1289 25.0911 27.9433V27.3726C25.0911 27.3632 25.0937 27.3549 25.0963 27.3468C25.0985 27.3396 25.1007 27.3325 25.1012 27.3248C25.1063 27.2108 25.1297 27.0982 25.1704 26.9911C25.1745 26.9811 25.1775 26.9706 25.1805 26.9602C25.1842 26.9474 25.1879 26.9347 25.1935 26.9229C25.1993 26.9104 25.2001 26.9058 25.2006 26.9023C25.2009 26.9006 25.2012 26.8992 25.2019 26.8972C25.2023 26.8962 25.2028 26.895 25.2035 26.8936L31.4284 14.2863C31.6178 13.9024 32.0168 13.6581 32.4547 13.658H40.5154C40.9071 13.6576 41.2716 13.8531 41.4803 14.1755C41.6889 14.4979 41.7125 14.902 41.5427 15.2453L35.4302 27.6233V27.9433C33.8358 27.1277 32.0612 26.7018 30.2597 26.7024L30.2607 26.7034ZM20.7784 37.5858C20.7778 32.4937 25.0223 28.3653 30.2587 28.3647C35.495 28.3642 39.7404 32.4918 39.7409 37.5839C39.7415 42.676 35.497 46.8044 30.2607 46.805C27.7461 46.8052 25.3344 45.8341 23.5561 44.1052C21.7778 42.3762 20.7786 40.0312 20.7784 37.5858Z" fill="#7F47FA"/>
<path fill-rule="evenodd" clip-rule="evenodd" d="M32.2169 34.9264L35.4522 35.384L35.4552 35.3879C35.7206 35.4261 35.9409 35.6071 36.024 35.8551C36.1071 36.1032 36.0387 36.3756 35.8475 36.5586L33.503 38.7721L34.0558 41.8998C34.101 42.1579 33.9916 42.4187 33.7736 42.5723C33.5555 42.726 33.2666 42.7459 33.0285 42.6237L30.1292 41.1467L27.238 42.6207C27.1368 42.6735 27.0238 42.7013 26.9089 42.7017C26.6996 42.7026 26.5006 42.6134 26.3652 42.4582C26.2298 42.303 26.1718 42.0976 26.2067 41.8969L26.7605 38.7692L24.42 36.5547C24.2287 36.3717 24.1604 36.0993 24.2435 35.8512C24.3266 35.6032 24.5469 35.4222 24.8122 35.384L28.0526 34.9264L29.4992 32.0797C29.6194 31.8454 29.8655 31.6974 30.1347 31.6974C30.404 31.6974 30.6501 31.8454 30.7703 32.0797L32.2169 34.9264ZM32.3593 38.4112L32.7606 38.0326L34.5875 36.3059L32.0624 35.9488L31.5096 35.8708L31.2628 35.383L30.1292 33.1606V39.9809L30.6308 40.2335L32.885 41.3847L32.4536 38.9458L32.3593 38.4112Z" fill="white"/>
</svg>
