<svg width="23" height="23" viewBox="0 0 23 23" fill="none" xmlns="http://www.w3.org/2000/svg">
<path fill-rule="evenodd" clip-rule="evenodd" d="M22.5402 11.7615C22.5402 10.946 22.467 10.1619 22.3311 9.40919H11.5001V13.8576H17.6892C17.4226 15.2951 16.6124 16.5131 15.3944 17.3286V20.2141H19.1111C21.2856 18.212 22.5402 15.2638 22.5402 11.7615Z" fill="#4285F4"/>
<path fill-rule="evenodd" clip-rule="evenodd" d="M11.5001 23C14.6051 23 17.2083 21.9702 19.111 20.2138L15.3944 17.3284C14.3646 18.0184 13.0473 18.4261 11.5001 18.4261C8.5048 18.4261 5.96956 16.4031 5.06523 13.6849H1.22315V16.6645C3.11544 20.4229 7.00456 23 11.5001 23Z" fill="#34A853"/>
<path fill-rule="evenodd" clip-rule="evenodd" d="M5.06527 13.6852C4.83527 12.9952 4.70458 12.2581 4.70458 11.5001C4.70458 10.7422 4.83527 10.0051 5.06527 9.31513V6.33556H1.22319C0.444322 7.88807 0 9.64445 0 11.5001C0 13.3558 0.444322 15.1122 1.22319 16.6647L5.06527 13.6852Z" fill="#FBBC05"/>
<path fill-rule="evenodd" clip-rule="evenodd" d="M11.5001 4.5739C13.1885 4.5739 14.7044 5.15413 15.8962 6.29369L19.1947 2.99525C17.2031 1.13955 14.5999 0 11.5001 0C7.00456 0 3.11544 2.57707 1.22315 6.3355L5.06523 9.31507C5.96956 6.59687 8.5048 4.5739 11.5001 4.5739Z" fill="#EA4335"/>
</svg>
